HIERARCHY
ROOT Hips
{
	OFFSET -0.001795 -0.223333 0.028219
	CHANNELS 6 Xposition Yposition Zposition Zrotation Yrotation Xrotation 
	JOINT LeftUpLeg
	{
		OFFSET 0.069520 -0.091406 -0.006815
		CHANNELS 3 Zrotation Yrotation Xrotation
		JOINT LeftLeg
		{
			OFFSET 0.034277 -0.375199 -0.004496
			CHANNELS 3 Zrotation Yrotation Xrotation
			JOINT LeftFoot
			{
				OFFSET -0.013596 -0.397961 -0.043693
				CHANNELS 3 Zrotation Yrotation Xrotation
				JOINT LeftToe
				{
					OFFSET 0.026358 -0.055791 0.119288
					CHANNELS 3 Zrotation Yrotation Xrotation
					End Site
					{
						OFFSET 0.000000 0.000000 0.000000
					}
				}
			}
		}
	}
	JOINT RightUpLeg
	{
		OFFSET -0.067670 -0.090522 -0.004320
		CHANNELS 3 Zrotation Yrotation Xrotation
		JOINT RightLeg
		{
			OFFSET -0.038290 -0.382569 -0.008850
			CHANNELS 3 Zrotation Yrotation Xrotation
			JOINT RightFoot
			{
				OFFSET 0.015774 -0.398415 -0.042312
				CHANNELS 3 Zrotation Yrotation Xrotation
				JOINT RightToe
				{
					OFFSET -0.025372 -0.048144 0.123348
					CHANNELS 3 Zrotation Yrotation Xrotation
					End Site
					{
						OFFSET 0.000000 0.000000 0.000000
					}
				}
			}
		}
	}
	JOINT Spine
	{
		OFFSET -0.002533 0.108963 -0.026696
		CHANNELS 3 Zrotation Yrotation Xrotation
		JOINT Spine1
		{
			OFFSET 0.005487 0.135180 0.001092
			CHANNELS 3 Zrotation Yrotation Xrotation
			JOINT Spine2
			{
				OFFSET 0.001457 0.052922 0.025425
				CHANNELS 3 Zrotation Yrotation Xrotation
				JOINT Neck
				{
					OFFSET -0.002778 0.213870 -0.042857
					CHANNELS 3 Zrotation Yrotation Xrotation
					JOINT Head
					{
						OFFSET 0.005152 0.064970 0.051349
						CHANNELS 3 Zrotation Yrotation Xrotation
						End Site
						{
							OFFSET 0.000000 0.000000 0.000000
						}
					}
				}
				JOINT LeftShoulder
				{
					OFFSET 0.078845 0.121749 -0.034090
					CHANNELS 3 Zrotation Yrotation Xrotation
					JOINT LeftArm
					{
						OFFSET 0.090977 0.030469 -0.008868
						CHANNELS 3 Zrotation Yrotation Xrotation
						JOINT LeftForeArm
						{
							OFFSET 0.259612 -0.012772 -0.027456
							CHANNELS 3 Zrotation Yrotation Xrotation
							JOINT LeftHand
							{
								OFFSET 0.249234 0.008986 -0.001171
								CHANNELS 3 Zrotation Yrotation Xrotation
								End Site
								{
									OFFSET 0.000000 0.000000 0.000000
								}
							}
						}
					}
				}
				JOINT RightShoulder
				{
					OFFSET -0.081759 0.118833 -0.038615
					CHANNELS 3 Zrotation Yrotation Xrotation
					JOINT RightArm
					{
						OFFSET -0.096012 0.032551 -0.009143
						CHANNELS 3 Zrotation Yrotation Xrotation
						JOINT RightForeArm
						{
							OFFSET -0.253742 -0.013329 -0.021401
							CHANNELS 3 Zrotation Yrotation Xrotation
							JOINT RightHand
							{
								OFFSET -0.255298 0.007772 -0.005559
								CHANNELS 3 Zrotation Yrotation Xrotation
								End Site
								{
									OFFSET 0.000000 0.000000 0.000000
								}
							}
						}
					}
				}
			}
		}
	}
}
MOTION
Frames: 11
Frame Time: 0.050000
0.000000 0.951360 0.000000 -5.424339 -19.824832 12.264611 5.974610 -0.109024 -16.521139 -4.461948 0.919399 6.734550 -1.766291 -1.671428 8.150916 0.000000 0.000000 0.000000 -2.449710 0.952292 -9.290015 4.891239 -0.224778 -1.944088 -7.778873 -20.535552 11.956519 0.000000 0.000000 0.000000 -9.618841 2.203982 19.245096 -4.028842 1.779130 -2.185102 -4.282494 1.723016 9.079205 -9.086553 5.854386 -17.504491 0.000000 0.000000 0.000000 -34.614623 -25.487639 19.466747 -40.956123 -32.728265 4.655123 2.106468 -31.604765 0.994077 0.000000 0.000000 0.000000 12.427189 30.144792 12.391503 38.416224 7.377061 -1.391495 -1.749748 54.273187 0.033880 0.000000 0.000000 0.000000 
0.000248 0.950212 -0.000250 -5.107789 -20.723040 12.472485 6.803136 0.032975 -15.526418 -6.650581 1.297733 4.546909 -1.515393 -1.206848 8.531442 0.000000 0.000000 0.000000 -1.791834 1.025827 -10.020984 2.444057 -0.143659 -1.680605 -6.993368 -19.387643 11.969152 0.000000 0.000000 0.000000 -9.854722 2.377493 19.667354 -3.067477 1.227802 -4.372604 -5.835529 1.784766 11.553973 -9.662513 5.881770 -22.067197 0.000000 0.000000 0.000000 -34.217781 -25.274816 19.567523 -39.936888 -31.974830 3.905304 -0.122076 -42.353829 2.487061 0.000000 0.000000 0.000000 8.111188 28.696498 10.989703 35.922598 10.308203 -0.830052 -1.368051 52.879443 0.072081 0.000000 0.000000 0.000000 
0.000451 0.951281 -0.000422 -5.047687 -19.072027 12.581078 7.091857 0.034990 -16.443465 -6.972271 1.374568 5.409562 -2.344102 -2.384281 9.008797 0.000000 0.000000 0.000000 -1.147299 1.026329 -10.059675 2.254253 -0.146648 -1.523212 -8.482665 -21.701724 12.417901 0.000000 0.000000 0.000000 -9.084069 2.127952 20.064913 -2.970658 1.225360 -3.858583 -6.060582 1.782966 9.527659 -8.368334 5.615287 -15.479405 0.000000 0.000000 0.000000 -35.801590 -26.884446 20.767012 -40.132376 -31.806812 4.153566 -2.728709 -43.229099 3.491966 0.000000 0.000000 0.000000 7.401858 29.182555 11.295287 35.462465 7.565459 -1.407765 -2.853410 50.570632 -0.455256 0.000000 0.000000 0.000000 
0.000455 0.951270 -0.000726 -5.024899 -19.259251 12.768123 7.812048 0.176655 -16.906513 -8.248961 1.690708 5.831479 -2.385816 -2.351923 9.345697 0.000000 0.000000 0.000000 -1.577415 1.062631 -10.373997 2.842915 -0.171063 -1.960211 -8.619203 -22.040407 13.337789 0.000000 0.000000 0.000000 -8.956491 2.041286 19.495884 -2.882974 1.184742 -3.925577 -7.349461 1.781244 10.225433 -8.175785 5.470170 -16.340884 0.000000 0.000000 0.000000 -35.152946 -27.516330 20.961785 -42.012929 -33.208665 5.063596 -2.713036 -44.153446 3.596458 0.000000 0.000000 0.000000 5.797824 29.681497 11.282273 33.082028 7.582208 -1.397924 -3.672639 48.229552 -0.788920 0.000000 0.000000 0.000000 
0.000298 0.951834 -0.000763 -4.949344 -19.965613 12.455884 7.598701 0.173826 -16.833586 -8.091162 1.725843 6.435832 -2.098219 -1.895723 9.386755 0.000000 0.000000 0.000000 -1.645030 1.082564 -10.548964 2.971220 -0.167324 -1.749136 -8.883597 -22.544553 13.973838 0.000000 0.000000 0.000000 -8.655260 2.031716 19.904504 -3.781963 1.580276 -3.572897 -7.288335 1.614507 9.691504 -8.035672 5.368581 -15.784542 0.000000 0.000000 0.000000 -34.201148 -28.362895 21.432955 -43.020258 -34.544402 5.853262 0.114084 -45.352663 2.570776 0.000000 0.000000 0.000000 5.348600 29.700122 11.148990 30.850522 8.721425 -1.042697 -3.726291 45.776442 -0.786501 0.000000 0.000000 0.000000 
0.000038 0.951857 -0.000627 -4.470316 -19.810815 12.572982 7.562223 0.160360 -17.179984 -8.802800 1.883850 6.437482 -2.268990 -2.053628 9.799762 0.000000 0.000000 0.000000 -2.427490 1.101330 -10.722298 3.615060 -0.189692 -1.614754 -9.011874 -22.656806 13.406558 0.000000 0.000000 0.000000 -8.536297 1.985225 19.765334 -4.131774 1.715617 -3.809734 -7.409645 1.221631 9.887599 -8.504955 5.672921 -15.286501 0.000000 0.000000 0.000000 -34.143053 -29.042572 22.053845 -42.610884 -35.413100 6.084581 -0.162744 -46.169231 2.740915 0.000000 0.000000 0.000000 4.147208 30.318404 11.191301 29.606169 8.288641 -1.112932 -3.894407 45.096527 -0.888967 0.000000 0.000000 0.000000 
-0.000260 0.951865 -0.000269 -4.128687 -19.552960 12.442313 7.206326 0.077051 -17.008741 -8.741256 1.835110 6.138548 -2.400015 -2.232403 9.907156 0.000000 0.000000 0.000000 -2.289433 1.127030 -10.978499 3.060834 -0.175419 -1.786646 -9.926201 -24.121845 14.723470 0.000000 0.000000 0.000000 -8.415104 1.990976 20.225178 -4.376712 1.881740 -2.936022 -7.369211 0.325264 8.941523 -8.857058 5.846546 -14.885745 0.000000 0.000000 0.000000 -34.158008 -29.248621 22.453484 -42.626796 -36.591466 6.570038 -0.609286 -45.503706 2.879245 0.000000 0.000000 0.000000 3.523007 30.574675 11.126384 28.615310 8.205808 -1.030792 -2.821866 44.954990 -0.528476 0.000000 0.000000 0.000000 
-0.000564 0.951566 0.000206 -3.806455 -19.390522 12.363991 6.889864 0.008221 -17.003705 -8.727965 1.821240 6.084203 -2.475500 -2.346378 9.911089 0.000000 0.000000 0.000000 -2.352991 1.133545 -11.058603 2.789528 -0.169130 -1.891900 -10.451665 -24.893281 15.176426 0.000000 0.000000 0.000000 -8.408502 2.029433 20.623592 -4.574244 2.010821 -2.345444 -7.240321 -0.114953 8.178852 -9.411130 6.201994 -14.392001 0.000000 0.000000 0.000000 -34.653940 -29.562439 22.958353 -42.110432 -36.784011 6.535823 -1.823282 -45.402824 3.357380 0.000000 0.000000 0.000000 3.390332 30.657058 11.124506 27.899809 7.750164 -1.045769 -1.666933 46.034917 -0.111475 0.000000 0.000000 0.000000 
-0.000907 0.951135 0.000740 -3.620203 -19.325644 12.284884 6.578742 -0.064124 -16.561910 -8.520260 1.717506 5.408140 -2.470731 -2.375768 9.794710 0.000000 0.000000 0.000000 -2.310953 1.146579 -11.188070 2.563332 -0.161611 -1.812679 -10.920464 -25.571892 15.513766 0.000000 0.000000 0.000000 -8.404889 2.097525 21.243853 -4.608289 2.034435 -2.234740 -7.479069 -0.258764 7.764264 -9.468639 6.194040 -14.818122 0.000000 0.000000 0.000000 -34.832963 -30.135619 23.437793 -41.632961 -36.960036 6.535116 -2.332584 -44.830741 3.470692 0.000000 0.000000 0.000000 2.947360 30.730938 11.099216 28.006763 7.273787 -1.118767 -1.362703 48.292059 -0.034062 0.000000 0.000000 0.000000 
-0.001314 0.950975 0.001175 -3.425610 -19.238994 12.113352 6.314832 -0.118779 -16.403173 -8.376334 1.679896 5.377757 -2.500727 -2.436651 9.735660 0.000000 0.000000 0.000000 -2.236296 1.134873 -11.096893 2.469061 -0.159227 -1.825534 -11.503013 -26.368186 15.659149 0.000000 0.000000 0.000000 -8.337673 2.152963 21.928373 -4.782097 2.128470 -2.014937 -7.581584 -0.808338 7.288541 -9.717755 6.251044 -15.495705 0.000000 0.000000 0.000000 -34.468377 -30.346643 23.597991 -41.361075 -37.065466 6.535922 -2.580407 -44.941162 3.576540 0.000000 0.000000 0.000000 2.971618 30.985072 11.164504 28.202003 7.064885 -1.123534 -0.134456 50.832583 0.436786 0.000000 0.000000 0.000000 
-0.001789 0.950851 0.001528 -3.415931 -19.396491 11.970960 6.322161 -0.116229 -16.203843 -8.396957 1.691007 5.391168 -2.426502 -2.344486 9.649477 0.000000 0.000000 0.000000 -2.345003 1.151988 -11.261047 2.393419 -0.151776 -1.534577 -11.372591 -26.218690 16.050482 0.000000 0.000000 0.000000 -8.449865 2.258112 22.477224 -4.881899 2.171604 -2.032617 -7.616877 -0.955147 7.173237 -9.959016 6.373220 -15.633296 0.000000 0.000000 0.000000 -33.936567 -30.608193 23.644988 -41.237253 -36.488472 6.318724 -3.069373 -45.748750 3.856097 0.000000 0.000000 0.000000 2.990925 31.188576 11.234217 28.828572 7.616083 -1.031856 -0.069689 53.624435 0.428317 0.000000 0.000000 0.000000 
